<svg width="16" height="16" viewBox="0 0 16 16" fill="none" xmlns="http://www.w3.org/2000/svg">
<g id=" compass" opacity="0.5">
<path id="Icon" fill-rule="evenodd" clip-rule="evenodd" d="M7.19794 8.80861L7.67394 7.64728L8.80194 7.19128L8.32594 8.35261L7.19794 8.80861ZM10.4553 5.54527C10.2726 5.35194 9.98594 5.27727 9.72261 5.38127L6.91394 6.51594C6.74728 6.58327 6.61461 6.71461 6.54661 6.88127L5.38328 9.71994C5.28461 9.96061 5.34261 10.2206 5.50194 10.4053C5.50728 10.4119 5.51128 10.4206 5.51728 10.4279C5.52794 10.4393 5.54061 10.4486 5.55261 10.4599C5.67794 10.5886 5.84794 10.6666 6.02794 10.6666C6.11128 10.6666 6.19594 10.6513 6.27728 10.6186L9.08594 9.48461C9.25261 9.41661 9.38528 9.28527 9.45328 9.11861L10.6166 6.27994C10.7246 6.01727 10.6499 5.72927 10.4553 5.54527ZM8.00001 13.3333C5.05934 13.3333 2.66668 10.9407 2.66668 8.00001C2.66668 5.05934 5.05934 2.66668 8.00001 2.66668C10.9407 2.66668 13.3333 5.05934 13.3333 8.00001C13.3333 10.9407 10.9407 13.3333 8.00001 13.3333ZM8.00001 1.33334C4.32401 1.33334 1.33334 4.32401 1.33334 8.00001C1.33334 11.676 4.32401 14.6667 8.00001 14.6667C11.676 14.6667 14.6667 11.676 14.6667 8.00001C14.6667 4.32401 11.676 1.33334 8.00001 1.33334Z" fill="white"/>
</g>
</svg>
