<svg width="16" height="16" viewBox="0 0 16 16" fill="none" xmlns="http://www.w3.org/2000/svg">
<g id=" fire" opacity="0.5">
<path id="Icon" fill-rule="evenodd" clip-rule="evenodd" d="M4.99674 6.34434C3.64208 7.81034 3.67074 10.1343 5.08274 11.5737C5.77208 12.2783 6.68808 12.667 7.66408 12.6677H7.66741C8.64541 12.6677 9.56474 12.279 10.2574 11.5737C11.6947 10.1083 11.6921 7.725 10.2514 6.26167L8.26074 4.22767C8.05941 5.88234 7.43874 7.33434 6.33341 7.33434C5.99474 7.33434 5.44274 7.18367 4.99674 6.34434ZM7.66741 14.001H7.66274C6.32541 13.9997 5.07074 13.4697 4.13008 12.5063C2.18741 10.5263 2.18474 7.30433 4.12408 5.32767L4.77941 4.665C4.94874 4.49567 5.19474 4.43033 5.42741 4.491C5.65874 4.55367 5.83874 4.73567 5.89874 4.96767C6.05208 5.56033 6.23474 5.85167 6.33541 5.96233C6.57208 5.713 7.00008 4.70567 7.00008 3.001C7.00008 2.903 7.00008 2.81033 6.99474 2.71767C6.98208 2.521 7.05741 2.32833 7.20008 2.19233C7.46474 1.941 7.88874 1.941 8.14274 2.20233L11.2027 5.32833C13.1494 7.30433 13.1527 10.5263 11.2094 12.507C10.2634 13.471 9.00608 14.001 7.66741 14.001Z" fill="white"/>
</g>
</svg>
