<svg width="16" height="16" viewBox="0 0 16 16" fill="none" xmlns="http://www.w3.org/2000/svg">
<path fill-rule="evenodd" clip-rule="evenodd" d="M8.47654 1.53375L13.6159 6.78975C13.8599 7.04041 13.9999 7.38975 13.9999 7.74908V13.3331C13.9999 14.0684 13.4352 14.6664 12.7412 14.6664H10.6665V8.66641C10.6665 8.29841 10.3685 7.99975 9.99988 7.99975H5.99988C5.63121 7.99975 5.33321 8.29841 5.33321 8.66641V14.6664H3.25921C2.56521 14.6664 1.99988 14.0684 1.99988 13.3331V7.74908C1.99988 7.38975 2.13988 7.04041 2.38321 6.79041L7.52321 1.53375C7.77454 1.27708 8.22521 1.27708 8.47654 1.53375ZM9.33334 14H6.66668V9.33334H9.33334V14Z" fill="white"/>
</svg>
