<svg width="16" height="16" viewBox="0 0 16 16" fill="none" xmlns="http://www.w3.org/2000/svg">
<g id=" message-circle" opacity="0.5">
<path id="Icon" fill-rule="evenodd" clip-rule="evenodd" d="M4.66681 7.33284C4.66681 6.96484 4.96548 6.66617 5.33348 6.66617C5.70148 6.66617 6.00014 6.96484 6.00014 7.33284C6.00014 7.70084 5.70148 7.99951 5.33348 7.99951C4.96548 7.99951 4.66681 7.70084 4.66681 7.33284ZM8.00014 6.66617C7.63214 6.66617 7.33348 6.96484 7.33348 7.33284C7.33348 7.70084 7.63214 7.99951 8.00014 7.99951C8.36814 7.99951 8.66681 7.70084 8.66681 7.33284C8.66681 6.96484 8.36814 6.66617 8.00014 6.66617ZM10.6668 6.66617C10.2988 6.66617 10.0001 6.96484 10.0001 7.33284C10.0001 7.70084 10.2988 7.99951 10.6668 7.99951C11.0348 7.99951 11.3335 7.70084 11.3335 7.33284C11.3335 6.96484 11.0348 6.66617 10.6668 6.66617ZM13.2657 8.1961C12.9277 10.3654 11.1791 12.1648 9.01308 12.5708C7.96708 12.7681 6.90174 12.6554 5.93508 12.2461C5.66108 12.1301 5.37774 12.0714 5.09974 12.0714C4.97308 12.0714 4.84774 12.0834 4.72441 12.1081L2.84974 12.4828L3.22508 10.6048C3.30374 10.2148 3.25574 9.79743 3.08708 9.3981C2.67774 8.43143 2.56574 7.36677 2.76241 6.3201C3.16841 4.1541 4.96708 2.40543 7.13708 2.06743C8.86374 1.79877 10.5524 2.34277 11.7711 3.56143C12.9904 4.78077 13.5351 6.4701 13.2657 8.1961ZM12.7144 2.61877C11.1911 1.0961 9.08441 0.416771 6.93174 0.749437C4.21374 1.17344 1.96041 3.36277 1.45174 6.0741C1.20641 7.37944 1.34774 8.70877 1.85908 9.91744C1.92374 10.0714 1.94374 10.2148 1.91841 10.3434L1.34641 13.2021C1.30241 13.4208 1.37108 13.6468 1.52908 13.8041C1.65508 13.9308 1.82508 13.9994 2.00041 13.9994C2.04374 13.9994 2.08708 13.9954 2.13108 13.9868L4.98641 13.4154C5.15041 13.3841 5.30908 13.4301 5.41508 13.4741C6.62508 13.9854 7.95441 14.1261 9.25841 13.8814C11.9704 13.3728 14.1597 11.1194 14.5837 8.40144C14.9184 6.2501 14.2377 4.1421 12.7144 2.61877Z" fill="white"/>
</g>
</svg>
