<svg width="10" height="11" viewBox="0 0 10 11" fill="none" xmlns="http://www.w3.org/2000/svg">
<g id="news" clip-path="url(#clip0_549_13)">
<path id="Vector" d="M9.7 7.05505L7.07505 9.68M1.4938 8.1337H5.5875M1.4938 3.7063H8.5062M1.4938 5.92H5.5875M0.769999 2.16C0.645347 2.16 0.525801 2.20951 0.437659 2.29766C0.349517 2.3858 0.299999 2.50534 0.299999 2.63V9.21C0.299999 9.33465 0.349517 9.45419 0.437659 9.54234C0.525801 9.63048 0.645347 9.68 0.769999 9.68H7.07505V7.52505C7.07505 7.40039 7.12457 7.28085 7.21271 7.19271C7.30085 7.10456 7.4204 7.05505 7.54505 7.05505H9.7V2.63C9.7 2.50534 9.65048 2.3858 9.56234 2.29766C9.4742 2.20951 9.35465 2.16 9.23 2.16H0.769999Z" stroke="white" stroke-linecap="round" stroke-linejoin="round"/>
</g>
<defs>
<clipPath id="clip0_549_13">
<rect width="10" height="10" fill="white" transform="translate(0 0.919998)"/>
</clipPath>
</defs>
</svg>
