<svg width="49" height="48" viewBox="0 0 49 48" fill="none" xmlns="http://www.w3.org/2000/svg">
<g id=" play-circle">
<path id="Icon" fill-rule="evenodd" clip-rule="evenodd" d="M23.4929 29.1992L29.1513 23.9992L23.4929 18.8012V29.1992ZM32.5173 26.3574L25.1809 33.0974C24.5383 33.6894 23.7024 33.9994 22.8503 33.9994C22.3809 33.9994 21.9035 33.9034 21.4543 33.7094C20.2255 33.1774 19.4641 32.0394 19.4641 30.7394V17.2594C19.4641 15.9614 20.2255 14.8214 21.4543 14.2914C22.7153 13.7414 24.1798 13.9814 25.1829 14.9034L32.5173 21.6434C33.1841 22.2534 33.5648 23.1134 33.5648 23.9994C33.5648 24.8874 33.1841 25.7454 32.5173 26.3574ZM24.5001 3.9994C13.3927 3.9994 4.35617 12.9734 4.35617 23.9994C4.35617 35.0274 13.3927 43.9994 24.5001 43.9994C35.6074 43.9994 44.6439 35.0274 44.6439 23.9994C44.6439 12.9734 35.6074 3.9994 24.5001 3.9994Z" fill="white"/>
</g>
</svg>
