<svg width="25" height="24" viewBox="0 0 25 24" fill="none" xmlns="http://www.w3.org/2000/svg">
<g id=" shuffle">
<path id="Icon" fill-rule="evenodd" clip-rule="evenodd" d="M19.1367 10.3081C18.5807 10.3081 18.1295 9.8601 18.1295 9.3081L18.1285 7.4151L5.74805 19.7071C5.55165 19.9021 5.29381 20.0001 5.03596 20.0001C4.77812 20.0001 4.52028 19.9021 4.32388 19.7071C3.93007 19.3161 3.93007 18.6831 4.32388 18.2931L10.6561 12.0061L4.78215 6.1751C4.38834 5.7841 4.38834 5.1511 4.78215 4.7611C5.17596 4.3701 5.81251 4.3701 6.20632 4.7611L12.0803 10.5921L16.6952 6.0091L14.7927 6.0001C14.2367 5.9971 13.7875 5.5471 13.7905 4.9951C13.7935 4.4431 14.2709 4.0101 14.8027 4.0001L19.1387 4.0211C19.6927 4.0241 20.1409 4.4711 20.1409 5.0211L20.1439 9.3071C20.1439 9.8591 19.6937 10.3071 19.1377 10.3081H19.1367ZM19.1366 13.6792H19.1416C19.6986 13.6822 20.1468 14.1322 20.1438 14.6842L20.1226 18.8922C20.1549 19.1832 20.0743 19.4842 19.8487 19.7072C19.6523 19.9022 19.3944 20.0002 19.1366 20.0002C19.1213 20.0002 19.1062 19.9961 19.0912 19.9919C19.0795 19.9887 19.0679 19.9855 19.056 19.9842L14.7986 19.9872C14.2426 19.9872 13.7914 19.5392 13.7914 18.9872C13.7914 18.4352 14.2416 17.9872 14.7976 17.9872L16.6901 17.9862L13.8921 15.2072C13.4983 14.8162 13.4983 14.1832 13.8921 13.7932C14.2859 13.4022 14.9235 13.4022 15.3163 13.7932L18.1193 16.5762L18.1294 14.6742C18.1324 14.1232 18.5826 13.6792 19.1366 13.6792Z" fill="white"/>
</g>
</svg>
