<svg width="37" height="36" viewBox="0 0 37 36" fill="none" xmlns="http://www.w3.org/2000/svg">
<g id=" skip-back">
<path id="Icon" fill-rule="evenodd" clip-rule="evenodd" d="M25.4733 9.3018C24.3644 8.7843 23.053 8.9373 22.136 9.6918L14.431 16.0113C14.3509 16.0773 14.2889 16.1538 14.2179 16.2273V10.5003C14.2179 9.6708 13.5411 9.0003 12.7071 9.0003C11.8732 9.0003 11.1964 9.6708 11.1964 10.5003V25.5003C11.1964 26.3298 11.8732 27.0003 12.7071 27.0003C13.5411 27.0003 14.2179 26.3298 14.2179 25.5003V19.7718C14.2889 19.8453 14.3509 19.9233 14.431 19.9893L22.136 26.3103C22.692 26.7663 23.393 27.0018 24.1046 27.0018C24.5684 27.0018 25.0367 26.9013 25.4733 26.6988C26.4508 26.2398 27.0597 25.3293 27.0597 24.3198V11.6808C27.0597 10.6713 26.4508 9.7608 25.4733 9.3018Z" fill="white"/>
</g>
</svg>
