<svg width="37" height="36" viewBox="0 0 37 36" fill="none" xmlns="http://www.w3.org/2000/svg">
<g id=" skip-forward">
<path id="Icon" fill-rule="evenodd" clip-rule="evenodd" d="M24.2931 9C23.4592 9 22.7823 9.6705 22.7823 10.5V16.227C22.7113 16.155 22.6494 16.077 22.5678 16.011L14.8643 9.69C13.9442 8.937 12.6328 8.784 11.5269 9.3015C10.548 9.7605 9.94061 10.671 9.94061 11.6805V24.3195C9.94061 25.329 10.548 26.2395 11.5269 26.6985C11.9636 26.9025 12.4319 27.0015 12.8957 27.0015C13.6073 27.0015 14.3083 26.766 14.8643 26.3085L22.5693 19.989C22.6494 19.923 22.7113 19.845 22.7823 19.773V25.5C22.7823 26.3295 23.4592 27 24.2931 27C25.1271 27 25.8039 26.3295 25.8039 25.5V10.5C25.8039 9.6705 25.1271 9 24.2931 9Z" fill="white"/>
</g>
</svg>
