<svg width="25" height="24" viewBox="0 0 25 24" fill="none" xmlns="http://www.w3.org/2000/svg">
<g id=" Sync">
<path id="Icon" fill-rule="evenodd" clip-rule="evenodd" d="M22.6662 10.326C22.6589 10.3419 22.6516 10.3578 22.6448 10.374C22.6379 10.3908 22.6325 10.4082 22.627 10.4257C22.6182 10.454 22.6094 10.4822 22.5944 10.507C22.5647 10.556 22.5257 10.5972 22.4867 10.6385C22.4755 10.6502 22.4644 10.662 22.4534 10.674C22.4412 10.6865 22.4305 10.7003 22.4197 10.714C22.4046 10.7331 22.3896 10.7523 22.3708 10.768C22.3144 10.8137 22.2492 10.8455 22.1843 10.8772C22.1797 10.8795 22.175 10.8817 22.1704 10.884C22.1567 10.8906 22.1436 10.8989 22.1306 10.9073C22.112 10.9191 22.0934 10.931 22.0727 10.938C21.9639 10.978 21.8481 11 21.7282 11C21.6739 11 21.6175 10.996 21.5621 10.986L17.2815 10.281C16.7326 10.191 16.3619 9.676 16.4526 9.131C16.5432 8.587 17.0609 8.214 17.6108 8.309L19.2667 8.581C18.0127 6.395 15.6186 5 12.9838 5C10.0035 5 7.37775 6.718 6.293 9.375C6.13487 9.765 5.75717 10 5.35933 10C5.23343 10 5.10552 9.977 4.98163 9.927C4.46595 9.72 4.21717 9.137 4.42667 8.625C5.82063 5.208 9.17962 3 12.9838 3C16.4203 3 19.5436 4.87 21.1199 7.788L21.4916 5.815C21.5943 5.273 22.1221 4.914 22.667 5.018C23.2139 5.119 23.5744 5.642 23.4717 6.185L22.7173 10.185C22.7076 10.236 22.6869 10.281 22.6662 10.326ZM19.5345 14.6252C19.743 14.1122 20.3312 13.8662 20.8458 14.0732C21.3615 14.2802 21.6103 14.8632 21.4008 15.3752C20.0069 18.7922 16.6479 21.0002 12.8437 21.0002C9.40714 21.0002 6.28383 19.1302 4.70757 16.2122L4.33491 18.1842C4.24527 18.6652 3.82225 19.0002 3.34585 19.0002C3.28441 19.0002 3.22196 18.9942 3.15952 18.9822C2.61261 18.8812 2.25304 18.3582 2.35578 17.8152L3.11016 13.8152C3.11782 13.7759 3.13477 13.7411 3.15181 13.706C3.16166 13.6858 3.17154 13.6655 3.17966 13.6442C3.18762 13.6243 3.19458 13.6037 3.20155 13.583C3.21661 13.5383 3.23173 13.4935 3.25722 13.4552C3.27208 13.4324 3.29151 13.4142 3.31107 13.3959C3.32332 13.3844 3.33561 13.3729 3.34686 13.3602C3.35573 13.35 3.3645 13.3397 3.37326 13.3295C3.42119 13.2734 3.4687 13.2178 3.52916 13.1772C3.5351 13.1729 3.54219 13.1703 3.5492 13.1678C3.55527 13.1656 3.56128 13.1634 3.56642 13.1602C3.66412 13.0972 3.76887 13.0482 3.8847 13.0232C3.89175 13.0216 3.8991 13.022 3.90642 13.0224C3.91269 13.0228 3.91895 13.0231 3.92498 13.0222C4.03578 13.0042 4.14757 12.9932 4.26542 13.0132L8.54599 13.7192C9.09491 13.8082 9.46556 14.3242 9.37491 14.8692C9.29333 15.3582 8.86628 15.7052 8.38182 15.7052C8.32743 15.7052 8.27203 15.7012 8.21664 15.6912L6.56081 15.4192C7.81477 17.6052 10.2089 19.0002 12.8437 19.0002C15.824 19.0002 18.4497 17.2822 19.5345 14.6252Z" fill="white"/>
<mask id="mask0_6_107" style="mask-type:luminance" maskUnits="userSpaceOnUse" x="2" y="3" width="22" height="19">
<path id="Icon_2" fill-rule="evenodd" clip-rule="evenodd" d="M22.6662 10.326C22.6589 10.3419 22.6516 10.3578 22.6448 10.374C22.6379 10.3908 22.6325 10.4082 22.627 10.4257C22.6182 10.454 22.6094 10.4822 22.5944 10.507C22.5647 10.556 22.5257 10.5972 22.4867 10.6385C22.4755 10.6502 22.4644 10.662 22.4534 10.674C22.4412 10.6865 22.4305 10.7003 22.4197 10.714C22.4046 10.7331 22.3896 10.7523 22.3708 10.768C22.3144 10.8137 22.2492 10.8455 22.1843 10.8772C22.1797 10.8795 22.175 10.8817 22.1704 10.884C22.1567 10.8906 22.1436 10.8989 22.1306 10.9073C22.112 10.9191 22.0934 10.931 22.0727 10.938C21.9639 10.978 21.8481 11 21.7282 11C21.6739 11 21.6175 10.996 21.5621 10.986L17.2815 10.281C16.7326 10.191 16.3619 9.676 16.4526 9.131C16.5432 8.587 17.0609 8.214 17.6108 8.309L19.2667 8.581C18.0127 6.395 15.6186 5 12.9838 5C10.0035 5 7.37775 6.718 6.293 9.375C6.13487 9.765 5.75717 10 5.35933 10C5.23343 10 5.10552 9.977 4.98163 9.927C4.46595 9.72 4.21717 9.137 4.42667 8.625C5.82063 5.208 9.17962 3 12.9838 3C16.4203 3 19.5436 4.87 21.1199 7.788L21.4916 5.815C21.5943 5.273 22.1221 4.914 22.667 5.018C23.2139 5.119 23.5744 5.642 23.4717 6.185L22.7173 10.185C22.7076 10.236 22.6869 10.281 22.6662 10.326ZM19.5345 14.6252C19.743 14.1122 20.3312 13.8662 20.8458 14.0732C21.3615 14.2802 21.6103 14.8632 21.4008 15.3752C20.0069 18.7922 16.6479 21.0002 12.8437 21.0002C9.40714 21.0002 6.28383 19.1302 4.70757 16.2122L4.33491 18.1842C4.24527 18.6652 3.82225 19.0002 3.34585 19.0002C3.28441 19.0002 3.22196 18.9942 3.15952 18.9822C2.61261 18.8812 2.25304 18.3582 2.35578 17.8152L3.11016 13.8152C3.11782 13.7759 3.13477 13.7411 3.15181 13.706C3.16166 13.6858 3.17154 13.6655 3.17966 13.6442C3.18762 13.6243 3.19458 13.6037 3.20155 13.583C3.21661 13.5383 3.23173 13.4935 3.25722 13.4552C3.27208 13.4324 3.29151 13.4142 3.31107 13.3959C3.32332 13.3844 3.33561 13.3729 3.34686 13.3602C3.35573 13.35 3.3645 13.3397 3.37326 13.3295C3.42119 13.2734 3.4687 13.2178 3.52916 13.1772C3.5351 13.1729 3.54219 13.1703 3.5492 13.1678C3.55527 13.1656 3.56128 13.1634 3.56642 13.1602C3.66412 13.0972 3.76887 13.0482 3.8847 13.0232C3.89175 13.0216 3.8991 13.022 3.90642 13.0224C3.91269 13.0228 3.91895 13.0231 3.92498 13.0222C4.03578 13.0042 4.14757 12.9932 4.26542 13.0132L8.54599 13.7192C9.09491 13.8082 9.46556 14.3242 9.37491 14.8692C9.29333 15.3582 8.86628 15.7052 8.38182 15.7052C8.32743 15.7052 8.27203 15.7012 8.21664 15.6912L6.56081 15.4192C7.81477 17.6052 10.2089 19.0002 12.8437 19.0002C15.824 19.0002 18.4497 17.2822 19.5345 14.6252Z" fill="white"/>
</mask>
<g mask="url(#mask0_6_107)">
</g>
</g>
</svg>
